External Loads File
version=1
nRows=39
nColumns=13
Range=5.000000e-03-10 seconds
endheader
time 	forceRightX 	forceRightY 	forceRightZ 	pointRightX 	pointRightY 	pointRightZ 	forceLeftX 	forceLeftY 	forceLeftZ 	pointLeftX 	pointLeftY 	pointLeftZ 		
0.005000 29.559498 74.503301 -0.000000 0.365185 0.382858 -0.162608 43.112955 107.415331 -0.000000 0.058482 0.269834 -0.398054
0.010000 29.179192 74.352539 -0.000000 0.365188 0.382904 -0.162599 42.970223 107.645890 -0.000000 0.058496 0.269787 -0.398056
0.015000 28.836494 74.220715 -0.000000 0.365196 0.382951 -0.162611 42.847132 107.855595 -0.000000 0.058494 0.269747 -0.398061
0.020000 28.548351 74.123142 -0.000000 0.365218 0.383006 -0.162603 42.760813 108.028855 -0.000000 0.058496 0.269691 -0.398096
0.025000 28.281299 74.084942 -0.000000 0.365162 0.383304 -0.162586 42.653022 108.163118 -0.000000 0.058481 0.269720 -0.398248
0.030000 28.091076 74.090083 -0.000000 0.365157 0.383387 -0.162569 42.584541 108.209369 -0.000000 0.058408 0.269599 -0.398203
0.035000 27.961335 74.147210 -0.000000 0.365151 0.383478 -0.162569 42.494058 108.182680 -0.000000 0.058402 0.269541 -0.398233
0.040000 27.887952 74.256121 -0.000000 0.365141 0.383561 -0.162581 42.345330 108.112059 -0.000000 0.058389 0.269458 -0.398255
0.045000 27.870763 74.409300 -0.000000 0.365127 0.383654 -0.162575 42.137535 108.028292 -0.000000 0.058399 0.269384 -0.398255
0.050000 27.892968 74.595073 -0.000000 0.365103 0.383756 -0.162584 41.880702 107.959640 -0.000000 0.058404 0.269292 -0.398261
0.055000 27.925683 74.791562 -0.000000 0.365070 0.383881 -0.162586 41.597908 107.925937 -0.000000 0.058422 0.269209 -0.398276
0.060000 27.941063 74.971341 -0.000000 0.365028 0.383975 -0.162601 41.319852 107.935969 -0.000000 0.058428 0.269117 -0.398259
0.065000 27.902950 75.123013 -0.000000 0.364977 0.384071 -0.162600 41.042639 107.998301 -0.000000 0.058451 0.269020 -0.398262
0.070000 27.808149 75.244492 -0.000000 0.364928 0.384157 -0.162604 40.783334 108.106492 -0.000000 0.058466 0.268922 -0.398263
0.075000 27.657908 75.344891 -0.000000 0.364873 0.384256 -0.162608 40.554130 108.259686 -0.000000 0.058497 0.268824 -0.398274
0.080000 27.457416 75.422823 -0.000000 0.364829 0.384378 -0.162607 40.387039 108.454273 -0.000000 0.058522 0.268711 -0.398270
0.085000 27.222010 75.458604 -0.000000 0.364779 0.384463 -0.162620 40.338402 108.671442 -0.000000 0.058546 0.268609 -0.398267
0.090000 26.958493 75.448504 -0.000000 0.364736 0.384554 -0.162612 40.398875 108.895691 -0.000000 0.058570 0.268514 -0.398269
0.095000 26.712827 75.403722 -0.000000 0.364699 0.384655 -0.162618 40.532182 109.099591 -0.000000 0.058588 0.268415 -0.398269
0.100000 26.543950 75.336769 -0.000000 0.364665 0.384747 -0.162619 40.690397 109.248787 -0.000000 0.058610 0.268317 -0.398273
0.105000 26.486401 75.254193 -0.000000 0.364638 0.384813 -0.162620 40.805345 109.309724 -0.000000 0.058620 0.268224 -0.398258
0.110000 26.543378 75.167354 -0.000000 0.364621 0.384883 -0.162631 40.773171 109.261799 -0.000000 0.058637 0.268133 -0.398257
0.115000 26.717902 75.088984 -0.000000 0.364611 0.384956 -0.162627 40.510890 109.093398 -0.000000 0.058639 0.268032 -0.398257
0.120000 26.988030 75.029290 -0.000000 0.364605 0.385026 -0.162636 39.982766 108.804942 -0.000000 0.058650 0.267931 -0.398270
0.125000 27.289875 74.990280 -0.000000 0.364599 0.385103 -0.162636 39.202065 108.405776 -0.000000 0.058664 0.267856 -0.398281
0.130000 27.541953 74.965991 -0.000000 0.364610 0.385186 -0.162636 38.201741 107.914155 -0.000000 0.058667 0.267774 -0.398286
0.135000 27.696124 74.944409 -0.000000 0.364598 0.385269 -0.162637 37.038625 107.349786 -0.000000 0.058671 0.267705 -0.398284
0.140000 27.741042 74.919366 -0.000000 0.364589 0.385353 -0.162627 35.784468 106.740518 -0.000000 0.058669 0.267646 -0.398271
0.145000 27.690271 74.894368 -0.000000 0.364582 0.385426 -0.162625 34.518618 106.129187 -0.000000 0.058672 0.267578 -0.398261
0.150000 27.566977 74.875462 -0.000000 0.364560 0.385525 -0.162628 33.320596 105.568580 -0.000000 0.058669 0.267492 -0.398248
0.155000 27.419906 74.853945 -0.000000 0.364546 0.385613 -0.162637 32.298130 105.092293 -0.000000 0.058678 0.267429 -0.398243
0.160000 27.258790 74.835591 -0.000000 0.364524 0.385731 -0.162629 31.480921 104.732830 -0.000000 0.058681 0.267343 -0.398236
0.165000 27.128239 74.824724 -0.000000 0.364505 0.385839 -0.162639 30.910972 104.491652 -0.000000 0.058689 0.267260 -0.398243
0.170000 27.041836 74.843567 -0.000000 0.364472 0.385937 -0.162624 30.554268 104.367044 -0.000000 0.058710 0.267133 -0.398247
0.175000 27.020161 74.902550 -0.000000 0.364444 0.386079 -0.162631 30.373404 104.338607 -0.000000 0.058722 0.267036 -0.398240
0.180000 27.075321 75.000889 -0.000000 0.364395 0.386178 -0.162629 30.332024 104.385443 -0.000000 0.058739 0.266931 -0.398245
0.185000 27.193916 75.136422 -0.000000 0.364347 0.386325 -0.162624 30.392779 104.503754 -0.000000 0.058759 0.266819 -0.398258
0.190000 27.384980 75.288464 -0.000000 0.364296 0.386419 -0.162632 30.585230 104.684884 -0.000000 0.058785 0.266682 -0.398265
0.195000 27.620726 75.441986 -0.000000 0.364251 0.386541 -0.162633 30.894951 104.927367 -0.000000 0.058813 0.266568 -0.398270
